<svg xmlns="http://www.w3.org/2000/svg" viewBox="0 0 912.69 249.53"><defs><style>.cls-1,.cls-2{fill:#05f1da;stroke-miterlimit:10;}.cls-1{stroke:#010d26;stroke-width:5px;}.cls-2{stroke:#05f2db;}.cls-3{fill:#010d26;}</style></defs><g id="Layer_2" data-name="Layer 2"><g id="Layer_1-2" data-name="Layer 1"><path class="cls-1" d="M249.13,138.16a13.71,13.71,0,0,0-22.63,12.59,13.8,13.8,0,0,0,7.63,10.07l-.32-.08c-4.78,17.54-13,32.57-24.41,44.65C176.6,240.09,101.9,263.17,47,216.24,23.8,196.49,9.73,168.37,7.31,137.09,4.88,105.52,14.6,74.49,34,52,72.79,6.81,134.85,13.46,141.79,14.36l.52.07,3.79-1.3.42-.75A10.12,10.12,0,0,1,156.3,7a10.24,10.24,0,0,1,8.75,9.73l.07,1.24,23.22,12.59A7.35,7.35,0,0,1,189.5,33a7.1,7.1,0,0,1,0,3.34,12.73,12.73,0,0,0-10.56,2,17.72,17.72,0,0,0-5.17,5.77l3.84,2.24A13.72,13.72,0,0,1,181.5,42a8.67,8.67,0,0,1,9.16-.49v0l13.12,9.13a39.41,39.41,0,0,1,6.88,4.69,5.48,5.48,0,0,1,2.11,2c.94.91,1.79,1.81,2.51,2.65-.6,1-1.2,1.87-1.81,2.72a4.7,4.7,0,0,0-.14-1.89l.11-.2a4.66,4.66,0,0,0-.21-2.44,4.22,4.22,0,0,0-.46-.84c-.65-.64-1.32-1.29-2.08-1.94l0,0-.25-.13-.36-.2-2.23-1.56a7.27,7.27,0,0,0,.48,2.64l-.48-.34a8.44,8.44,0,0,0,3.08,6.45,9.55,9.55,0,0,0,2,1.29,32.6,32.6,0,0,1-8.77,8.07c-7.74,4.76-16.14,5.54-31.28,5.77-3.45,0-6.86.08-10.24.11-15.64.15-30.42.29-44.29,2.14a62.73,62.73,0,0,0-17.91,5v0a50.58,50.58,0,0,0-13.11,8.19A52.53,52.53,0,0,0,81.13,99l-.11.14c-.27.37-.63.9-1.06,1.55-7.73,11.88-13.06,31.38-4.82,50.48A52.35,52.35,0,0,0,117,182.41c23.22,2.72,39.35-11.38,44.08-16.16a13,13,0,0,0,2,.51,13.74,13.74,0,1,0-11-11.15,13.71,13.71,0,0,0,5,8.38c-5.17,5-19.45,16.34-39.53,14a47.93,47.93,0,0,1-38.25-28.61c-7.54-17.48-2.64-35.37,4.47-46.28.35-.55.66-1,.9-1.32a48,48,0,0,1,5.56-5.58,49.46,49.46,0,0,1,11.59-7.36l.46-.2A58.31,58.31,0,0,1,118.87,84c13.6-1.82,28.24-2,43.74-2.1l10.27-.12c18.33-.27,26-.91,33.83-6.62a36.84,36.84,0,0,0,10.82-12.78l.2-.53a9.21,9.21,0,0,0-.31-5.23,9.81,9.81,0,0,0-5-5.37L193.65,38.16a11.64,11.64,0,0,0,.16-6.23,11.84,11.84,0,0,0-2.25-4.48l-.28-.36L169.36,15.21a14.16,14.16,0,0,0-26.29-5.74l-1.22.42C132.52,8.76,70.1,3.12,30.6,49.05,10.46,72.48.36,104.69,2.88,137.43,5.39,169.9,20,199.09,44.06,219.62c21,17.93,47.32,27.41,75.41,27.41a129,129,0,0,0,15.73-1c29.7-3.68,58.65-17.74,77.43-37.61,11.91-12.6,20.47-28.24,25.45-46.47a13.69,13.69,0,0,0,11-23.81Z"/><path class="cls-1" d="M183,192.54a13.54,13.54,0,0,0-11.71-10.19,13.74,13.74,0,0,0-13.57,7.74c-.3.62-2.74,5.89-.22,11.25.14.31.31.6.48.9a78.12,78.12,0,0,1-33.53,8.61c-21.91.54-43-8.43-59.3-25.28-14.56-15-23.6-34.67-24.17-52.49a82.08,82.08,0,0,1,2.87-24.29l-4.29-1.17a86.18,86.18,0,0,0-3,25.6c.6,18.9,10.1,39.62,25.41,55.44,16.69,17.24,38.14,26.66,60.59,26.66.67,0,1.35,0,2,0a83.31,83.31,0,0,0,36.41-9.51,13.41,13.41,0,0,0,22-13.24Z"/><path class="cls-2" d="M686.89,72.49a48,48,0,0,0-48.76.08,43.78,43.78,0,0,0-16.47,19.28q-5.83,12.6-5.83,29.06v6.34q.07,16.16,5.91,28.52a43.92,43.92,0,0,0,16.54,19,48,48,0,0,0,48.85,0,43.27,43.27,0,0,0,16.34-19.17q5.71-12.48,5.72-29v-6.26q-.08-16.45-5.87-28.87A43.33,43.33,0,0,0,686.89,72.49Zm2.75,54.14q0,19-7,28.91t-20,9.89q-12.82,0-20-10.13t-7.23-28.67v-6.49q.17-18.17,7.31-28.1t19.82-9.93q13,0,20.06,10t7.07,28.68Z"/><path class="cls-2" d="M788.71,125q-7.92-5-21-8.84t-18.75-8q-5.7-4.11-5.69-10.26,0-7.31,5.26-11.37t14.8-4.08q10.23,0,15.72,5t5.5,13.72h19.37a31.39,31.39,0,0,0-5.23-17.64,34.1,34.1,0,0,0-14.37-12.26,48.37,48.37,0,0,0-20.84-4.31q-17.6,0-28.63,8.77t-11,22.29q0,15.45,15.3,25.06,8,5,21.52,9.07t18.72,8.07q5.19,4,5.19,11.38a13.31,13.31,0,0,1-5.11,10.88q-5.12,4.11-15.26,4.11-11.76,0-18.07-5.23t-6.3-14.76H720.37A30.92,30.92,0,0,0,726,165a37.56,37.56,0,0,0,15.84,12.42,54.79,54.79,0,0,0,22.33,4.49q18.36,0,29.09-8.26T804,151.36a29.62,29.62,0,0,0-3.69-15Q796.63,129.92,788.71,125Z"/><path class="cls-2" d="M906.28,92.37a43.19,43.19,0,0,0-16.53-18.91,48.83,48.83,0,0,0-49.08.07,43.73,43.73,0,0,0-16.56,19.18q-5.88,12.53-5.88,28.9v6.31q.07,16.06,5.95,28.36a43.87,43.87,0,0,0,16.65,18.95,48.75,48.75,0,0,0,49.16,0,43.19,43.19,0,0,0,16.45-19.06q5.74-12.42,5.75-28.87v-6.22Q912.12,104.7,906.28,92.37ZM892.51,127.3q0,18.92-7,28.75t-20.1,9.84q-12.92,0-20.18-10.07t-7.28-28.52v-6.45q.17-18.07,7.35-27.95t20-9.87q13.06,0,20.19,9.91t7.11,28.52Z"/><path class="cls-3" d="M294,181.58h-12.1l0-114.7h12.31Z"/><path class="cls-3" d="M331.19,66.88q.06,7.13.19,14.34c0,2.34.09,4.68.15,7a45.54,45.54,0,0,1,15.58-15.87,39.91,39.91,0,0,1,20.6-5.47q17.84,0,26.55,10.2t8.82,30.6v73.9h-12.2v-74q-.11-15.09-6.31-22.48t-19.83-7.39a30.73,30.73,0,0,0-20.14,7.23q-8.78,7.23-13,19.51v77.13h-12.2l-.24-114.7Z"/><path class="cls-3" d="M422.22,122.62a64.83,64.83,0,0,1,6.2-28.71,46.58,46.58,0,0,1,43.18-27q22.14,0,35.86,15.48t13.73,41V126a65.38,65.38,0,0,1-6.2,28.87,46.12,46.12,0,0,1-17.47,19.77,48,48,0,0,1-25.71,7q-22,0-35.81-15.48t-13.78-41ZM434.51,126q0,19.83,10.3,32.55t27,12.72q16.59,0,26.89-12.72T509,125v-2.35a56.15,56.15,0,0,0-4.71-23.19,37.84,37.84,0,0,0-13.22-16.3,33.83,33.83,0,0,0-19.47-5.77,32.78,32.78,0,0,0-26.74,12.82Q434.51,103,434.51,123.75Z"/><polygon class="cls-3" points="602.25 66.88 568.57 163.98 534.57 66.88 521.89 66.88 563.51 181.58 573.52 181.58 614.93 66.88 602.25 66.88"/></g></g></svg>